<svg version="1.2" xmlns="http://www.w3.org/2000/svg" viewBox="0 0 200 138" width="200" height="138">
	<title>Brut-svg</title>
	<style>
		.s0 { fill: #000000 } 
		.s1 { fill: #e3e3e3 } 
		.s2 { fill: #00a650 } 
		.s3 { fill: #ffffff } 
		.s4 { fill: #ed1c24 } 
		.s5 { fill: #1a943e } 
	</style>
	<g id="g8">
		<g id="g10">
			<path id="path12" fill-rule="evenodd" class="s0" d="m162.9 119.8v4.5h-21.8c-16 11.7-32.8 15-49.7 13.1-8-1-16.2-3.4-24.4-7.9q-4.2-2.3-8.1-5.2h-21.9v-4.6h-36.9c1-3.9 2.3-7.8 2.8-11.7-0.6-3.8-1.8-7.6-2.8-11.5h36.8c-2.5-5.8-4.2-12-5-18.1-1.9-14.3 0.1-28.2 7.7-42.4 1.4-2.5 2.9-5 4.9-7.6 1.9-2.7 4.3-5.5 6.9-8.1 2.6-2.6 5.4-5 8.3-7.1q4.5-3.3 9.3-5.7c6.7-3.3 13.6-5.5 20.4-6.6 3.5-0.5 7.1-0.7 10.3-0.8 6.2 0 11.6 0.7 17.3 2.2 5.4 1.3 10.7 3.4 16 6.2 2.5 1.4 4.9 2.9 7.6 4.9 5.3 3.9 11.1 9.7 14.9 15 4 5.4 6.4 10.2 8.5 15.4 2.1 5.4 3.5 11 4.2 16.6 1.1 8.7 0.6 18-2 27.3q-1.3 4.5-3.1 8.8l36.7 0.1c-1 3.9-2.2 7.6-2.7 11.5 0.5 4 1.8 7.8 2.7 11.6z"/>
			<path id="path14" fill-rule="evenodd" class="s1" d="m37 96.5v-4.5q-0.5-1.5-1-3c-0.3-0.9-0.6-1.9-1.1-3.8-0.4-1.9-1-4.7-1.4-7.6-1.6-13.6 0.4-27.8 8.3-41.9 1.5-2.5 3.1-5 4.9-7.4q2.8-3.6 5.9-6.8 3.2-3.1 6.8-5.9c7.6-5.8 15.5-9.4 23.4-11.5 16.4-4.2 33.4-2.9 50.5 6.6 2.5 1.5 5 3.1 7.4 4.9q3.5 2.8 6.7 5.9 3.2 3.2 5.9 6.8c5.8 7.7 9.4 15.6 11.5 23.5 2.1 8 2.8 16.9 1.8 25.1-0.6 5.2-1.9 10.4-3.7 15.5v4.1h-2.1v-2.9h-121.2v2.9zm41.9-4.6h2.3c0.9-3.1 1.4-6.2 2.8-9.3 0.3-0.5 1.1-1.2 1.4-1.4 3.5-2 7.1-2.7 10.8-4.8q0.3-0.3 0.7-0.6c-2-2.8-6-6.9-9.1-7.1-1.7-0.1-3.1 0-5.1 2.9-0.8 1.2-1 2.9-1.8 4-0.1 0.2-0.4 0.6-0.8 0.9 0-0.4 0.1-0.7 0.3-1.3 1.2-3.7 2.6-7.3 4.6-10.9 0.4-0.7 0.9-1.3 1.3-1.9l14.4 0.5c-1.5 5.4-2.7 10.8-1.9 16.3 0 2 1.8 4-0.6 6-1.2 1.4-2.6 2.7-3.1 4-0.2 0.2-1.1 0.6-1.4 0.7q-0.3 0.3-0.5 0.7c-0.3-0.3-0.4 0.7-0.5 0-0.6-0.3-1.5 0.4-2.4 1.3h3.7c0.2-0.6 1-1.2 1.6-1.4 0.7-0.3 1.4-0.8 2.1-1.4-0.5 1-1.9 1.9-2.2 2.8 0.8 0 1-0.5 1.8-1.1 1.2-1.1 2.7-2.6 3.8-4.5 0.1-0.3 0.5-0.6-0.1-0.9-0.4-0.3-0.7-0.3-1.2-0.3l-0.2-0.2c0.4-0.6 0.8-1.1 1.4-1.6 0.6 0.5 1.1 1.1 1.4 1.8 1.1 1.9 3 1.5 4.6 2 3.2 0.7 6.2 1.3 9.9-0.1 2.3-1.1 2.1-3.4 1.2-5-1.6-4.4 1.1-8.8 1.2-13.2 0-0.5 0.2-1.4 0.9-1.4q0.2-0.1 0.3-0.1c1.9 5.5 2.6 11 4.3 16.6 0.2 0.4 0.4 1.4 0.8 0.7 2.1-4.1 2.7-8.7 4.2-13 1.5-3.5 2.1-7 2.9-10.5 0.4-2.2-0.3-3.3-0.2-5 0.1-0.2 0.4-0.5 0.7-0.8l-1.6-0.6c0-1 1.3-1.7 0.5-2.5-2-3.6-3.9-7.2-7.3-10.8-0.2-0.3-0.3-0.7-0.7-1.1-1.1 0.1-2.4 0.6-3.6 1.1-0.3-1 0.2-2-0.6-3.1-2.4-1-5.2-1.3-7.8-2.1-1.5-0.2-3-1.1-4.5 0.1-0.3 0.5-0.7 1.1-1.3 1.3l-0.6-1.8c-3.3-0.5-6.2-0.9-10-0.8-1.1 0-1.8 0-2.7 0.2-0.4 0.7-0.5 1.4-1.2 2.3-1.2-0.3-0.8-1.9-1.9-2.2-2-0.5-4.4 0.5-6.5 1-1.7 0.4-3.3 0.6-5 1.6 0.7 3.1 2.8 6.4 4.5 9.6 1.2 2.2 2.3 4.2 4.1 6.4 1.2 1.4 1.6 0.4 2.4 0.7l0.9 1.9c-3.3 2.5-5.5 5.7-7 8.6-2 3.9-4.2 7.8-5.2 11.6-0.1 0.6-0.2 1.2-0.1 1.6 0.4 0.2 1.1 0.6 1.7 0.9 0.4 0.1 1.2 0.8 1.8-0.1 1.2-2.3 1.1-4.4 2.3-6.6 0.8-1.2 1.7-1.5 2.5-1.5 0.2 0 0.6 0.1 0.9 0.1 0.5 0.1 1.5 0.4 2.5 0.8 1.6 0.6 2.7 1.2 3.9 2.4q0.6 0.6 0.8 1.3c-3.6 1-7.2 2.3-10.9 4.7-1.3 1.2-1.2 2.2-1.7 3.3q-1.5 4.1-2.9 8.3zm-39.6 0h21.5q-1.3-2.2-2.3-4.4c-0.6-1.5-1.3-3.1-1.8-5-0.6-1.9-1.2-4.2-1.5-6.5-0.4-2.3-0.5-4.6-0.6-6.8 0-5.9 1-11.2 3.2-16.8 1.4-3.7 3.1-6.8 5.6-10.2 2.5-3.5 6.3-7.3 9.8-9.8 7.3-5.2 14-7.5 21.1-8.4 8.9-1.1 18.1 0.2 27.4 5.2 3.2 1.7 6.7 4.2 10.3 7.7 3.4 3.4 5.9 7 7.7 10.4 6.7 12.8 7.4 25.7 2.1 39.2q-1.2 2.8-2.7 5.4h21.5c2.8-7.6 4.1-15.4 4.1-23-0.1-12.6-3.3-26-13.3-39.2q-2.6-3.5-5.7-6.6-3-3-6.5-5.7c-7.4-5.6-15-9.1-22.7-11.1-15.7-4-32.2-2.8-48.7 6.4-2.4 1.4-4.8 3-7.1 4.7q-3.5 2.7-6.5 5.7-3.1 3.1-5.7 6.6c-5.7 7.4-9.1 15-11.2 22.7-2 7.8-2.6 16.3-1.7 24.4 0.6 5 1.9 10.1 3.7 15.1zm23.3 0h2.9q-1.6-2.4-2.8-5c-1.7-3.6-2.9-7.5-3.6-11.5-0.8-5.9-0.5-11.3 0.8-16.6 0.8-3.2 2.1-6.5 3.8-9.6 1.6-2.9 3.8-6.2 7-9.4 4.9-4.8 9.5-7.4 14.1-9.3 11.3-4.3 23-4.1 35 2.2 2.9 1.6 6.1 3.8 9.4 7.1 4.7 4.8 7.4 9.5 9.2 14.1 3.6 9.4 3.9 19.5 0.3 29.4-1 2.9-2.4 5.8-4.3 8.6h2.9c3.3-5.5 5.2-11.2 6-16.9 1.2-9.1-0.1-17.9-4.9-27-1.7-3.1-4.1-6.5-7.5-10-3.3-3.3-6.8-5.7-10-7.5-11.9-6.3-24.3-7.1-37-2.3-3.5 1.4-6.5 3.1-9.8 5.4-3.4 2.5-7.1 6.2-9.5 9.6-5 7-7.1 13.4-8.1 20.4-0.5 3.7-0.4 7.9 0.2 12.2 0.4 2.2 0.9 4.4 1.5 6.3 1.1 3.6 2.5 6.6 4.4 9.8z"/>
			<path id="path16" fill-rule="evenodd" class="s1" d="m108.9 36.3c2.6 0 5.1 1.4 7.7 1.8 0.9 0.4 2 0 2.8 1.4 0.4 1.3 0.3 2.7-0.4 4.6-0.9 2.2-2.4 4.3-3.1 6.7q-0.2 0.8-0.2 1.6c-1.5-0.3-2.9-2.3-4.3-2.5-0.8-0.3-0.7-1.1-0.8-1.6-0.4 0.4-0.4 1.3-1.1 1.1-0.3 0-1.1 0.1-1.6-0.3-0.2-0.2-0.4-0.5-0.5-0.8-0.9 1-1.8 0.6-2.8 0.4 0.4-3.6 0.4-7.2 2.7-10.9 0.4-0.7 1-1.1 1.6-1.5z"/>
			<path id="path18" fill-rule="evenodd" class="s1" d="m87.7 60c1.9-2.6 4.4-3.7 6.7-4.5 0.7-0.3 2.1-0.6 3.7-0.9q1.4-0.2 2.8-0.3c3 0 5.5 0.3 8 1.3 1.4 0.5 2.3 1 3.2 1.7 0.9 0.6 2.9 2.7 3.9 4.1 1.6 2.4 2.8 5 2.5 7.5-0.9 4.1-2.8 8.1-2.3 12.3 0.1 0.7 0.4 1.5 0.9 2.2-4.1 2.3-8.5 1.8-12.7 0.7-0.8-0.4-2-0.3-2.4-1.8-1.2-6.4 0.7-12.9 1.6-19.4 0.1-0.6 0.2-1.3 0.2-1.9-2.2-0.2-4.3-0.3-6.5 0-1.1 0.1-2.2-0.5-3.3-0.5-2.1-0.1-4.2-0.1-6.3-0.5z"/>
			<path id="path20" fill-rule="evenodd" class="s2" d="m98 48.4c-1.3 0.3-2.6 0.6-4 0.3-0.9-2.3-1-4.6-1.5-7-0.3-2-0.4-4 1.1-6 3.7 0 7.4-0.6 11.2 1 1.8 1.3 0.2 3.1 0 4.8-0.5 2.3 0 4.7-1.3 7.1-1.7-0.1-3.3 0-5-0.7 0-2.4-0.3-4.8 0.3-7.2 0-0.2-0.2-0.4-0.5-0.5z"/>
			<path id="path22" fill-rule="evenodd" class="s1" d="m117.1 51c0.7-1.6 1.8-3.1 2.3-4.6 0.8-1.6 1.1-3.2 2.9-4.7 0.7-0.4 1.2-0.4 1.9-0.3 0.2 0.7-0.1 1.4-0.2 2l1.4-0.5c0.3 0.8 1.4 1.7 0.9 2.5-0.5 0.7-1 1.4-1.5 2.2 1-0.2 1.7-1.4 2.6-1.6 1.7 1.9 2.5 3.9 3.6 5.8 0.6 1.1-0.9 2.7-2.1 3.1-0.7 0.3-1.4 0.5-2.2 0.9l-6.1 4.4c-0.8-1.5-2.1-3-2.2-4.7 0.3-0.5 0.7-1.1 0.9-1.7-0.5 0.2-0.9 0.3-1.3 0.9q0 0.1-0.1 0.2c-0.5-0.7-1.2-1.1-1.8-1.6l0.5-1.7 0.7 1c1-2 2.6-3.9 4.3-5.8q1-1.3 1.8-2.5c-1.4 0.4-3 2.7-4.1 4.1-0.6 0.9-1.1 1.7-2.2 2.6z"/>
			<path id="path24" fill-rule="evenodd" class="s1" d="m79.4 38.5c3.4-1.8 6.9-2.5 10.3-2.4 1.3 4.3 2.8 8.7 3.2 13-1.1 0.2-2.1 0.8-3.1 0.7-0.2-0.7-0.4-1.7-1.3-1.8 0 0.8 1.1 1.7 0.2 2.3-1 0.3-1.9 0.3-2.9 0.6-1.6-4.1-5.1-8.3-6.4-12.4z"/>
			<path id="path26" fill-rule="evenodd" class="s1" d="m122.6 69.1l0.7-0.1q0 0 0 0c0.6-0.6 1.1-0.6 1.7-0.8 1.8-0.4 3.8 0.4 5.5-1.2 0.4-1.3 0.5-2.6 0.7-3.9q-0.3 0-0.6 0c-2.8-0.3-5.7 2.2-8.5 2.5q0.2 1.8 0.5 3.5z"/>
			<path id="path28" fill-rule="evenodd" class="s3" d="m121.8 65.1c-0.3-1.4-1.6-2.9 0.5-4.2 3-2 5.8-5.8 8.9-4.7 0.2 0.6-0.3 1.3-0.9 1.5-0.4 0.2-0.6 0.5-0.9 0.9l2.1-0.6c0.4 1.1 0.3 2.6-1.3 3.5-2.8 1.3-5.6 2.7-8.4 3.6z"/>
			<path id="path30" fill-rule="evenodd" class="s1" d="m37 119.7h2.6v3h121.1v-2.9h2.2v4.5h-24.8c-4.3 3-8.3 5.1-12.7 6.9-16.4 6.5-33.5 6.9-50.8 0-4.4-1.8-8.5-4-12.7-6.9h-24.9zm29 4.6c17.6 10.4 35.5 12.1 53.8 6.5 4.8-1.5 9.6-3.7 14.2-6.5z"/>
			<path id="path32" fill-rule="evenodd" class="s1" d="m58.5 103h-16.4l-0.1-3.5c5.8 0 11.6-0.1 17.5 0.1 1.4 0.2 3.4 0.8 4 2.7 0.6 1.6 0.4 3.2-0.7 5 0.8 1 1.4 2.2 1.4 3 0.2 1.9 0.5 4.4-2.2 5.9-2.1 1-4.3 0.7-6.5 0.8h-13.4v-3.7c5.6 0 11.1 0.1 16.8-0.1 1.6-0.3 2.3-2.5 0.4-3.6q-0.4-0.2-0.8-0.2h-16.4v-3.7c5.4 0 10.9 0 16.3 0 0.9 0.2 2.3-1.7 0.7-2.6q-0.3-0.1-0.6-0.1z"/>
			<path id="path34" fill-rule="evenodd" class="s1" d="m125.1 99.5c0.6 0 1.4 0.2 2 0.4 0 4.7 0.5 9.4-0.4 14.1-0.2 1.1-1.8 2.5-3 2.6-4.6 0.9-9.3 0.4-13.9 0.2-1.2-0.2-2.8-0.3-3.8-1.9-0.7-1.2-0.7-2.7-0.7-4v-11c1.3-0.6 2.6-0.5 4 0 0 3.9 0 7.9 0 11.8 0.1 0.8 1.4 1.4 1.9 1.3 3.4 0 6.8 0.1 10.2 0 0.9-0.1 1.7-1.4 1.7-2.2v-10.9c0.6-0.2 1.4-0.4 2-0.4z"/>
			<path id="path36" fill-rule="evenodd" class="s1" d="m87.9 103.3h-13.6c0.1-1.2-0.7-2.5 0.8-3.5 0.3-0.1 0.6-0.2 0.9-0.2 4.7 0 9.4-0.1 14.1 0.1 1.3 0.2 2.7 0.2 3.9 2 1.1 2.4 0.9 5.3 0.4 8-0.1 0.9-1.4 2.1-2.5 2.3l-1.3 0.4 3.6 4.3c-2 0.1-4.3 0.6-6.2-0.4-2.8-2.3-5.1-5-7.5-7.5 3-0.1 6 0 9.1-0.1 1.7-1 0.8-2.8 1-4.2 0-0.5-0.5-1.3-1.1-1.2q-0.8 0-1.6 0z"/>
			<path id="path38" fill-rule="evenodd" class="s1" d="m147.1 99.6c3.2 0.1 6.3 0 9.5 0.1 0.9 0.2 1.4 1.4 1.3 2.1 0.1 0.9-1.1 1.8-1.9 1.7-2.3 0-4.5 0-6.8 0 0 4.1 0.1 8.4 0 12.4-0.8 1.8-3.3 2.2-4.2-0.2-0.1-4.1 0-8.1 0-12.2-2.3 0-4.5 0-7-0.1-0.6 0-1.2-0.2-1.6-0.9-0.1-0.4-0.2-1.2 0-1.8 0.2-0.6 1.1-1.1 1.7-1.1z"/>
			<path id="path40" fill-rule="evenodd" class="s2" d="m108.9 36.3c2.6 0 5.1 1.4 7.7 1.8 0.9 0.4 2 0 2.8 1.4 0.4 1.3 0.3 2.7-0.4 4.6-0.9 2.2-2.4 4.3-3.1 6.7q-0.2 0.8-0.2 1.6c-1.5-0.3-2.9-2.3-4.3-2.5-0.8-0.3-0.7-1.1-0.8-1.6-0.4 0.4-0.4 1.3-1.1 1.1-0.3 0-1.1 0.1-1.6-0.3-0.2-0.2-0.4-0.5-0.5-0.8-0.9 1-1.8 0.6-2.8 0.4 0.4-3.6 0.4-7.2 2.7-10.9 0.4-0.7 1-1.1 1.6-1.5z"/>
			<path id="path42" fill-rule="evenodd" class="s4" d="m122.6 69.4h0.7c2 0.4 4.1-0.6 5.9 0.1 0 0.3-1.1 0.9-1.1 1.2 0 0.2 1.1 0.2 1.1 0.5 0 0.7-0.3 1-0.6 1.4q-0.2 0.2-0.4 0.4l-4.6-0.2q-0.6-1.7-1-3.4z"/>
			<path id="path44" fill-rule="evenodd" class="s3" d="m122.6 69.1l0.7-0.1q0 0 0 0c0.6-0.6 1.1-0.6 1.7-0.8 1.8-0.4 3.8 0.4 5.5-1.2 0.4-1.3 0.5-2.6 0.7-3.9q-0.3 0-0.6 0c-2.8-0.3-5.7 2.2-8.5 2.5q0.2 1.8 0.5 3.5z"/>
			<path id="path46" fill-rule="evenodd" class="s3" d="m117.1 51c0.7-1.6 1.8-3.1 2.3-4.6 0.8-1.6 1.1-3.2 2.9-4.7 0.7-0.4 1.2-0.4 1.9-0.3 0.2 0.7-0.1 1.4-0.2 2l1.4-0.5c0.3 0.8 1.4 1.7 0.9 2.5-0.5 0.7-1 1.4-1.5 2.2 1-0.2 1.7-1.4 2.6-1.6 1.7 1.9 2.5 3.9 3.6 5.8 0.6 1.1-0.9 2.7-2.1 3.1-0.7 0.3-1.4 0.5-2.2 0.9l-6.1 4.4c-0.8-1.5-2.1-3-2.2-4.7 0.3-0.5 0.7-1.1 0.9-1.7-0.5 0.2-0.9 0.3-1.3 0.9q0 0.1-0.1 0.2c-0.5-0.7-1.2-1.1-1.8-1.6l0.5-1.7 0.7 1c1-2 2.6-3.9 4.3-5.8q1-1.3 1.8-2.5c-1.4 0.4-3 2.7-4.1 4.1-0.6 0.9-1.1 1.7-2.2 2.6z"/>
			<path id="path48" fill-rule="evenodd" class="s5" d="m79.4 38.5c3.4-1.8 6.9-2.5 10.3-2.4 1.3 4.3 2.8 8.7 3.2 13-1.1 0.2-2.1 0.8-3.1 0.7-0.2-0.7-0.4-1.7-1.3-1.8 0 0.8 1.1 1.7 0.2 2.3-1 0.3-1.9 0.3-2.9 0.6-1.6-4.1-5.1-8.3-6.4-12.4z"/>
			<path id="path50" fill-rule="evenodd" class="s4" d="m123.9 74.8q-0.1-0.5 0-0.9c1.1-0.6 2.7-0.5 3.9 0.3 0.1 0.3 0.1 0.7-0.2 0.8-0.1 0.1-1.2 0.2-1.2 0.3-0.1 0.1 1.3 0.3 1.2 0.4q0 0.2-0.1 0.4-0.3 0.5-0.7 0.9c-2.2 0.4-3-0.7-2.9-2.2z"/>
			<path id="path52" fill-rule="evenodd" class="s1" d="m85.1 16.5c0.2 0.9-1 1.6-1.8 1.8l1 2.8-1.1 0.4-2.7-7.6q-0.1-0.5 0-0.9c0.9-1.5 2.7-1.7 3.4-0.3 0.4 1.3 1 2.6 1.2 3.8zm-2.1 1l1.2-0.4-1.7-4.6-1.1 0.4zm4.2-7.1l2.1 9.2-1.1 0.3-2.2-9.3zm3.7 9l-0.5-2.4 1.6-4.9-0.3-1.6-1.1 0.2 0.2 0.9-1.2 0.2-0.3-1.7 3.5-0.6 0.4 2.4-1.6 4.9 0.3 1.6 1.2-0.2-0.2-0.9 1.2-0.2 0.3 1.7zm5-0.6l-0.2-2.5 2-4.7-0.1-1.6-1.2 0.1 0.1 0.9-1.2 0.1-0.1-1.8 3.5-0.2 0.2 2.4-2 4.7 0.2 1.7 1.1-0.1-0.1-1 1.2-0.1 0.2 1.8zm5.6-8.3c-0.1-0.5 0.6-1.2 1-1.3 0.9-0.1 1.7 0.1 2.6 0.1l-0.2 2.9h-1.1l0.1-2.1-1.2-0.1-0.2 3.5 1.2 0.1v0.8l-1.2-0.1-0.2 3.5 1.2 0.1 0.1-2.2 1.2 0.1-0.2 3-2.1-0.1c-0.7 0-1.5-1.1-1.3-1.5zm13 0.3l-2.1 9.2-1.2-0.3 2.2-9.2zm-0.6 9.5l2.6-7.5c0.4-0.9 1.3-1.1 1.9-0.9 0.7 0.1 1.6 0.9 1.5 1.6-0.7 2.7-1.8 5.3-2.7 8l-1.1-0.4 1-2.8-1.1-0.3-1 2.7zm2.4-3.1l1.1 0.4 1.6-4.6-1.1-0.4z"/>
			<path id="path54" fill-rule="evenodd" class="s1" d="m108.6 19.2l0.6-4.3-1.2-0.2-0.6 4.3-1.2-0.2 1.3-9.3 2.1 0.3c0.6 0 1.2 0.8 1.2 1.1 0.1 0.9-0.2 1.9-0.3 2.8l-0.7 0.8 0.5 1-0.5 3.8zm-0.5-5.2l1.2 0.1 0.5-3.4-1.2-0.2z"/>
			<path id="path56" fill-rule="evenodd" class="s4" d="m124.1 78.3c0-0.4 1.5-1.3 3.1-0.1 0 0.2-1 0.5-1.1 0.8 0 0.1 1-0.1 0.9 0.3-0.1 0.3-0.9 0.4-1 0.7 0 0.1 0.7 0.5 0.6 0.6-0.4 1.4-1.1 2.6-1.9 0.6-0.4-1-0.6-2.9-0.6-2.9z"/>
		</g>
	</g>
</svg>