<?xml version="1.0" encoding="UTF-8" standalone="no"?>
<!-- Created with Inkscape (http://www.inkscape.org/) -->

<svg
   version="1.1"
   id="svg2"
   width="1910.6667"
   height="1316"
   viewBox="0 0 1910.6667 1316"
   sodipodi:docname="Brut.eps"
   xmlns:inkscape="http://www.inkscape.org/namespaces/inkscape"
   xmlns:sodipodi="http://sodipodi.sourceforge.net/DTD/sodipodi-0.dtd"
   xmlns="http://www.w3.org/2000/svg"
   xmlns:svg="http://www.w3.org/2000/svg">
  <defs
     id="defs6" />
  <sodipodi:namedview
     id="namedview4"
     pagecolor="#ffffff"
     bordercolor="#000000"
     borderopacity="0.25"
     inkscape:showpageshadow="2"
     inkscape:pageopacity="0.0"
     inkscape:pagecheckerboard="0"
     inkscape:deskcolor="#d1d1d1" />
  <g
     id="g8"
     inkscape:groupmode="layer"
     inkscape:label="ink_ext_XXXXXX"
     transform="matrix(1.3333333,0,0,-1.3333333,0,1316)">
    <g
       id="g10"
       transform="scale(0.1)">
      <path
         d="M 11671.5,1304.23 V 981.574 H 10112 C 8963.04,143.84 7763.98,-95.2852 6552.16,43.043 5973.89,116.145 5388.48,289.164 4803.59,607.66 4601.09,718.469 4407.27,842.719 4221.44,981.574 H 2652.35 V 1308.85 L 9.38281,1311.23 C 79.8281,1588.06 170.539,1866.04 208.766,2142.77 162.656,2417.74 79.8281,2691.46 10.5078,2965.55 l 2636.9822,-0.17 c -183.03,420.62 -303.93,857.8 -363.38,1295.18 -130.9,1027.04 11.67,2016.62 556.92,3035.96 98.06,180.54 206.63,355.5 346.02,543.99 139.29,188.6 309.5,390.72 495.25,577.39 185.67,186.72 387.08,357.96 599.15,511.16 211.95,153.28 434.68,288.52 666.56,405.42 473.31,238.15 968.54,394.08 1460.51,468.77 250.71,38.05 504.36,55.94 733.92,57.97 447.09,3.11 834.03,-50.17 1243.86,-152.22 383.9,-97.44 768.27,-246.03 1143.66,-450.11 180.55,-98.05 355.5,-206.63 544.24,-345.86 384.5,-277.71 799.8,-695.42 1072.2,-1072.52 283.7,-386.83 456.7,-728.68 606.9,-1101.81 153.2,-388.32 253.3,-789.68 303.7,-1190.93 77.1,-616.93 41.7,-1284.57 -144.8,-1947.43 -60.9,-216.55 -136.6,-428.95 -226.3,-635.14 l 2634.2,-5.77 c -70.7,-274.42 -156.4,-540.18 -197,-824.36 38,-281.34 127.1,-552.15 198.1,-827.73 l -2649.7,-3.11"
         style="fill:#000000;fill-opacity:1;fill-rule:evenodd;stroke:none"
         id="path12" />
      <path
         d="m 2652.35,2965.38 v 325.22 c -24.88,69.74 -48.41,140.01 -71.06,210.55 -22.76,70.52 -44.61,141.41 -76.74,277.43 -32.11,136.04 -74.43,337.18 -101.67,540.56 -118.97,972.34 25.03,1990.53 592.48,2996.41 104.79,182.74 223.47,361.15 353.39,530.99 130,169.83 271.16,331.08 422.41,482.33 151.14,151.15 312.4,292.38 482.24,422.31 550.01,419.74 1113.48,673.11 1682.44,825.43 1171.55,297.53 2393.46,208.5 3613.23,-471.97 182.69,-104.78 361.17,-223.47 531.03,-353.46 169.8,-129.93 331,-271.07 482.2,-422.31 151.3,-151.25 292.4,-312.4 422.4,-482.33 419.8,-550.02 673.1,-1113.41 825.5,-1682.38 153,-568.68 197.7,-1206.42 126.4,-1797.68 -43.5,-367.34 -130.3,-738.07 -265.1,-1102.07 V 2965.2 l -150.6,0.35 3.7,206.64 -8687.46,0.18 -2.58,-206.99 z m 3008.97,333.45 h 163.91 c 61.49,220.73 97.43,442.95 201.25,662.78 16.53,33.36 77.16,88.93 100.16,99.92 247.18,141.06 507.27,196.9 768.09,347.44 18.49,13.17 35.75,28.15 53.01,43 -139.76,200.37 -432.05,488.08 -651.72,504.37 -118.3,6.82 -225.47,1.15 -366.45,-207.9 -52.94,-88.23 -73.04,-203.9 -126.91,-286.28 -11.17,-16.28 -31.96,-44.25 -61.25,-65.93 3.36,32.64 9.57,53.36 21.68,98.24 86.72,260.17 190,516.02 332.75,777.1 31.5,46.18 65.77,91.16 90.18,136.82 l 1033.59,-36.37 c -105.14,-387.99 -191.69,-773.04 -132.48,-1164.04 0.45,-148.06 127.36,-287.79 -42.93,-434.62 -89.83,-96.11 -190.62,-190.88 -226.73,-285.06 -9.38,-10.16 -75.59,-44.07 -99.3,-46.63 -13.19,-17.34 -24.5,-34.7 -36.19,-52.21 -18.94,21.05 -29.48,-47.89 -32.21,-1.85 -42.75,23.18 -112.39,-27.72 -171.34,-88.78 h 260.55 c 14.68,44.53 74.61,86.3 118.3,97.01 49.13,19.46 99.32,55.66 147.53,100.44 -32.73,-69.84 -135.21,-133.11 -158.59,-197.45 60.81,-1.69 72.93,34.97 131.43,77.54 85.85,76.36 196.12,185.49 269.23,318.85 7.35,23.8 38.13,45.48 -2.94,66.73 -27.6,18.86 -52.91,24.78 -85.92,22.57 l -17.18,13.18 c 28.42,39.66 60.73,78.06 102.32,117.7 43.71,-40.34 75.56,-82.38 97.34,-133.28 81.07,-131.51 219.58,-105.39 330.91,-140.96 231.32,-54.17 447.34,-92.32 709.75,2.91 164.26,81.95 147.63,243.18 83.36,364.45 -112.11,312.3 82.23,626.03 86.4,938.36 5.56,35.64 17.22,102.3 70.52,103.98 7.07,2.21 14.17,4.24 21.31,6.27 134.72,-394.18 182.76,-790.47 301.55,-1188.19 15.72,-31.68 29.8,-98.76 59.54,-49.47 155.14,293.03 194.61,618.6 301.78,929.15 107.54,247.27 148.85,500.2 206.03,749.05 28.67,156.67 -19.74,236.39 -11.59,356.4 7.53,20 28.05,40.54 50.8,58.23 l -116.73,47.44 c 1.68,66.45 95.48,119.56 39.64,178.14 -145.05,256.13 -285.32,511.26 -525.94,768.72 -15.57,25.56 -22.4,53.26 -48.24,80.35 -83.01,-3.11 -172.49,-44.25 -259.84,-75.13 -21.4,71.49 15.92,140.7 -43.27,215.39 -168.86,78.07 -372.14,98.76 -558.6,155.68 -107.1,12.22 -212.76,76.89 -323.65,-10.43 -19.11,-36.55 -47.71,-78.25 -94.78,-88.33 l -43.9,128.84 c -236.73,33.01 -442.85,61.16 -710.28,56.75 -78.5,-1.33 -133.93,-5.6 -199.32,-13.9 -23.64,-54.79 -32.64,-100.89 -82.04,-164.89 -83.88,21 -58.57,133.03 -139.89,156.74 -142.96,32.13 -309.85,-41.32 -464.73,-70.45 -118.94,-32.91 -236.64,-49.82 -357.18,-118.06 51.95,-221.5 197.53,-459.4 319.75,-687.11 90.26,-153.28 167.44,-299.13 299.23,-454.44 86.27,-101.15 113.09,-31.15 170.71,-52.55 l 61.32,-134.72 c -236.72,-179.54 -389.75,-409.31 -501.6,-619.76 -143.1,-276.02 -299.32,-553.9 -370.47,-829.05 -7.69,-43.17 -11.4,-84.69 -8.85,-109.38 30.89,-19.39 79.48,-47.61 124.78,-67.61 27.7,-4.43 87.8,-54.26 128.6,11.5 84.86,162.3 78.76,308.96 166.83,469.84 56.54,86.47 115.49,105.06 178.93,103.98 11.41,-0.17 37,-3.44 63.89,-8.05 34.88,-5.57 103.11,-23.88 174.54,-51.15 116.2,-48.42 198.86,-88.93 282.64,-174.88 27.62,-30.18 45.23,-59.1 55.67,-89.28 -259.65,-77.72 -517,-168.16 -776.83,-342.51 -95.58,-82.73 -89.38,-154.33 -126.84,-231.95 -72.02,-197.52 -138.93,-395.16 -203.09,-593.21 z m -2839.33,0 h 1538.23 c -59.31,102.3 -113.12,207.79 -161.62,315.76 -48.59,107.89 -91.87,218.25 -133.53,354.79 -41.69,136.58 -81.78,299.31 -107.44,464.28 -25.76,165.04 -37.08,332.32 -38.24,483.56 -0.87,425.07 68.84,802.42 224.95,1205.71 105.59,262.32 224.45,486.92 399.93,726.14 182.93,253.56 458.18,527.27 706.68,706.56 518.78,372.23 999.14,531.18 1510.85,600.05 640.66,75.83 1299.98,-14.96 1962.11,-372.06 228.68,-123.2 484.02,-301.44 739.07,-554.19 243.02,-245.04 426.22,-501.25 554.12,-738.97 479.7,-915.69 531.5,-1838.3 147,-2808.61 -55,-131.69 -118.7,-259.75 -190.57,-383.02 h 1537.87 c 204.1,542.77 298,1099.96 296.4,1641.92 -7.9,905.45 -237.7,1858.86 -951.9,2807.64 -125.4,164.07 -261.9,319.93 -408,466.04 -146.1,146.12 -301.9,282.49 -465.95,408.08 -531.54,405.59 -1076,650.36 -1625.76,797.64 C 7224.13,9707.59 6043.36,9621.47 4864.65,8964 4688.09,8862.78 4515.7,8748.09 4351.61,8622.51 4187.44,8496.92 4031.71,8360.55 3885.58,8214.43 3739.47,8068.32 3603.01,7912.46 3477.52,7748.39 3071.83,7216.86 2827.14,6672.52 2679.88,6122.68 2530.94,5567.86 2488.61,4953.42 2558.53,4377.82 c 43.2,-359.57 129.4,-722.69 263.46,-1078.99 z m 1668.32,0 h 208.04 c -75.03,113.64 -142.4,232.4 -201.41,355.07 -124.51,257.61 -210.53,536.4 -255.41,823.91 -62.15,418.26 -39.74,805.8 56.64,1187.94 58.51,230.72 147.78,461.52 270.35,686.92 112.32,208.42 274.8,441.16 505.17,673.67 347.17,342.12 679.74,529.84 1008.62,661.87 809.85,305.33 1648.13,293.99 2503.9,-156.81 208.42,-112.31 441.09,-274.7 673.57,-505.06 342.13,-347.2 529.92,-679.77 661.88,-1008.63 261.74,-671.53 278.84,-1400.25 25.31,-2102.21 -76.02,-207.54 -178.06,-414.8 -311.77,-616.67 h 208.14 c 238.16,390.99 373.56,797.39 430.06,1205.9 83.3,653.92 -7.1,1283.49 -354.4,1932.2 -118.93,220.71 -291.05,467.26 -535.05,713.56 -236.65,234.71 -484.09,411.51 -713.57,535.06 -856.05,452.94 -1746.54,507.9 -2652.41,166.03 -253.27,-101.85 -470.2,-216.65 -701.09,-386.11 -244.86,-176.66 -509.22,-442.42 -682.33,-682.35 -359.4,-500.97 -512.86,-964.8 -579.41,-1458.9 -34.67,-267.97 -33.72,-565.59 12.84,-873.4 24.79,-159.3 63.19,-316.57 105.41,-453.46 80.88,-260.1 180.8,-471.53 316.92,-698.53"
         style="fill:#e3e3e3;fill-opacity:1;fill-rule:evenodd;stroke:none"
         id="path14" />
      <path
         d="m 7803.16,7271.55 c 184.26,4.27 369.33,-96.1 550.75,-129.99 66.21,-26.29 142.85,0.17 205.93,-95.06 22.31,-95.93 18.95,-193.81 -34.06,-329.13 -60.36,-159.9 -171.34,-306.28 -222.42,-477.44 -6.02,-39.91 -9.98,-79.93 -12.81,-119.92 -108.43,22.13 -209.13,169.21 -310.72,179.65 -55.05,25.66 -47.8,76.64 -54.79,117.98 -28.68,-28.68 -29.31,-96.1 -75.13,-83.19 -22.84,-0.45 -83.54,-4.44 -114.78,24.16 -19.67,16.98 -27.97,35.4 -39.13,56.44 -66.38,-69.28 -129.83,-42.47 -197.53,-31.23 27.62,259.85 27.79,518.79 188.67,784.81 30.74,46.48 76.03,76.73 116.02,102.92"
         style="fill:#e3e3e3;fill-opacity:1;fill-rule:evenodd;stroke:none"
         id="path16" />
      <path
         d="m 6281.7,5581.23 c 137.43,181.15 317.52,261.25 480.01,318.85 50.9,18.59 154.81,45.86 266.66,64.35 67.08,10.89 135.05,17.16 203,19.19 211.01,5.32 392.26,-20.17 575.43,-89.56 94.36,-37.88 162.93,-75.48 227.43,-122.47 64.45,-42.92 209.05,-192.49 276.66,-294.96 117.35,-169.74 199.13,-354.17 179.66,-535.88 -65.32,-292.23 -195.77,-574.52 -161.14,-877.02 8.22,-51.32 26.54,-108.32 60.15,-160.27 -292.65,-159.48 -606.64,-124.26 -910.46,-46.46 -54.44,25.31 -142.77,23 -169.48,126.81 -87.63,458 51.51,926.14 112.83,1388.65 5.68,44.96 16.92,89.64 12.75,134.69 -154.96,10.89 -304.8,18.31 -465.32,-2.56 -76.65,-5.76 -155.15,37.89 -233.21,35.3 -151.5,13.37 -302.75,6.65 -454.97,41.34"
         style="fill:#e3e3e3;fill-opacity:1;fill-rule:evenodd;stroke:none"
         id="path18" />
      <path
         d="m 7023.68,6410.64 c -95.33,-26.82 -189.48,-43.45 -287.01,-26.99 -62.29,165.39 -69.75,335.15 -105.66,502.5 -25.31,143.1 -30.63,288.15 74.26,432.94 269.37,-2.66 535.06,38.66 808.52,-70.89 127.07,-98.77 8.76,-228.06 -2.06,-343.56 -34.31,-169.48 -5.03,-337.44 -95.39,-509.4 -118.59,3.11 -232.83,-1.94 -356.28,52.3 0.17,169.31 -24.79,338.17 23.53,508.25 -3.82,15.76 -19.92,29.3 -35.93,42.05 l -23.98,-587.2"
         style="fill:#00a650;fill-opacity:1;fill-rule:evenodd;stroke:none"
         id="path20" />
      <path
         d="m 8393.72,6225.5 c 44.79,110.08 128.24,219.73 165.33,329.14 55.83,110.18 77.26,226.45 208.51,332.11 45.21,27.98 81.67,32.77 130.45,21.78 17.23,-47.87 -1.33,-99.92 -15.15,-145.75 l 103.91,40.97 c 22.2,-60.54 97.15,-123 64.52,-180.88 -36.56,-53.1 -72.85,-103.46 -105.07,-156.11 68.69,11.49 120.65,96.98 180.62,112.56 121.53,-132.13 180.28,-276.48 264.09,-417.28 41.25,-78.68 -70.97,-187 -155.03,-215.85 -51.15,-24.69 -99.22,-35.22 -154.61,-70.62 l -442.24,-312.75 c -55.22,111.34 -148.42,216.37 -154.86,335.75 19.01,39.75 52.3,79.83 62.03,120.37 -34.09,-8.75 -60.11,-17.69 -87.34,-62.11 -3.65,-4.17 -7.54,-8.26 -11.35,-12.32 -36.09,47.72 -86.9,80 -130.69,113.64 l 42.54,120.19 43.37,-68.51 c 74.16,138.6 187,278.96 311.43,416.48 49.12,58.33 92.92,117.36 131.35,176.39 -102.15,-31.79 -215.06,-192.24 -294.27,-296.82 -47.78,-59.76 -81.96,-122.33 -157.54,-180.38"
         style="fill:#e3e3e3;fill-opacity:1;fill-rule:evenodd;stroke:none"
         id="path22" />
      <path
         d="m 5690.79,7117.57 c 240.45,127.52 490.47,176.11 737.11,171.34 93.8,-310.71 200.1,-621.79 226.74,-932.71 -74.16,-13.34 -147.01,-56.54 -220.36,-45.2 -13.73,44.43 -27.62,119.46 -88.61,124.6 -1.4,-54.69 74.79,-118.23 11.35,-162.23 -69.47,-20.8 -140.02,-20.87 -209.4,-46.29 -114.7,296.85 -363.21,595.08 -456.83,890.49"
         style="fill:#e3e3e3;fill-opacity:1;fill-rule:evenodd;stroke:none"
         id="path24" />
      <path
         d="m 8789.06,4930.57 50.2,4.14 c -0.63,0.12 -1.25,0.25 -1.88,0.38 42.92,40.09 79.82,45.5 119.56,54.08 132.76,28.5 273.01,-27.34 397.44,87.78 23.28,94.35 31.33,187.27 47.02,280.91 -14.45,-0.27 -28.88,-0.54 -43.31,-1.07 -202.46,24.26 -404.17,-158.05 -607.96,-182.03 7.82,-81.38 20.59,-162.81 38.93,-244.19"
         style="fill:#e3e3e3;fill-opacity:1;fill-rule:evenodd;stroke:none"
         id="path26" />
      <path
         d="m 8726.32,5212.82 c -18.59,99.36 -110.11,206.81 35.57,304.7 214.87,138.5 421.25,408.95 641.19,331.34 10.43,-43.2 -22.06,-87.98 -67.19,-105.59 -24.33,-16.01 -41.87,-34.87 -61.59,-61.59 l 150.79,43.45 c 27.45,-84.87 17.09,-189.75 -91.76,-255.33 -201.26,-92.22 -405.17,-190.46 -607.01,-256.98"
         style="fill:#ffffff;fill-opacity:1;fill-rule:evenodd;stroke:none"
         id="path28" />
      <path
         d="m 2652.35,1308.85 184.96,-0.17 -2.58,-211.01 8681.17,-0.7 -0.6,207.09 156.2,0.17 V 981.574 H 9896.45 C 9585.98,767.586 9298.71,616.063 8987.3,487.746 7809.81,18.082 6584.02,-5.27344 5346.18,487.648 5029.86,617.672 4734.83,775.715 4437.02,981.574 H 2652.35 Z M 4732.17,981.574 C 5989.92,231.09 7274.57,114.289 8587.02,513.938 8927.11,623.141 9271.89,777.496 9601.31,981.574 H 4732.17"
         style="fill:#e3e3e3;fill-opacity:1;fill-rule:evenodd;stroke:none"
         id="path30" />
      <path
         d="m 4193.74,2505.7 -1179.79,0.1 -2.38,247.8 c 416.56,-2.23 832.69,7.43 1249.7,-6.72 101.86,-12.22 244.35,-57.98 292.21,-190.46 37.53,-118.58 23.72,-230.09 -55.67,-360.54 62.94,-70.82 102.5,-154.18 105.86,-215.52 9.74,-132.73 33.37,-316.11 -159.57,-421.67 -153.2,-70.37 -309.14,-47.62 -463.93,-53.46 l -965.94,0.17 0.07,260.2 c 401.54,1.58 795.27,-3.81 1204.48,4.77 117.35,24.68 165.41,184.88 29.82,262.12 -18.66,8.58 -38.13,12.67 -57.51,12.85 H 3014.23 v 266.19 c 391.15,-0.26 783.93,-1.23 1173.59,-0.6 60.7,-16.73 162.91,119.63 47.79,184.78 -13.55,6.62 -27.72,9.81 -41.87,9.99"
         style="fill:#e3e3e3;fill-opacity:1;fill-rule:evenodd;stroke:none"
         id="path32" />
      <path
         d="m 8966.14,2753.6 c 45.31,-0.1 96.21,-15.23 144.17,-30.18 -2.4,-334.8 32.39,-668.98 -31.78,-1004.48 -12.91,-80.53 -128.84,-181.05 -210.8,-189.1 -333.55,-62.59 -667.89,-30.01 -1002.07,-15.76 -85.22,14.15 -194.8,20.8 -266.57,137.25 -49.64,89.48 -52.3,192.66 -53.82,289.39 l -0.24,787.04 c 94.88,37.33 189.38,31.48 285.05,0.7 1.94,-283.02 -0.17,-565.6 5.75,-849.14 1.95,-57.98 96.73,-101.53 133.63,-93.3 242.84,1.78 483.99,-4.77 728.6,1.25 68.07,7.43 126.57,98.24 121.88,158.5 l -1.05,778.88 c 45.56,14.07 105.84,30.63 147.25,28.95"
         style="fill:#e3e3e3;fill-opacity:1;fill-rule:evenodd;stroke:none"
         id="path34" />
      <path
         d="m 6296.02,2483.67 -975.07,-0.63 c 12.14,83.64 -44.97,179.3 57.34,251.52 22.05,7.42 47.19,9.66 70.9,11.69 335.75,-1.68 671.44,4.16 1007.39,-4.87 94.43,-13.09 195.92,-16.11 278.41,-143.54 80.88,-175.23 62.49,-378.78 29.9,-573.3 -10.44,-68.06 -102.55,-151.95 -177.33,-163.56 l -96.22,-31.41 261.54,-306.03 c -147.01,-10.18 -308.62,-42.04 -446.22,28.67 -201.96,162.94 -363.93,359.14 -539.75,539.06 217.62,1.23 430,-3.82 652.77,3.89 124.6,69.91 59.37,197.18 70.09,297.62 5.04,36.28 -31.79,95.93 -74.54,87 -39.73,2.29 -79.46,3.36 -119.21,3.89"
         style="fill:#e3e3e3;fill-opacity:1;fill-rule:evenodd;stroke:none"
         id="path36" />
      <path
         d="m 10541.3,2743.32 c 227.8,-1.51 454.8,5.41 683.4,-4.42 63.7,-12.75 100.6,-97.89 89.5,-148.76 11.1,-61.87 -80.4,-127.97 -135.5,-119.39 -162.6,-2.48 -325.4,-1.33 -488.1,-2.03 0.1,-296.4 9.7,-598.43 -1.6,-889.24 -51.8,-126.21 -237,-153.2 -298.1,14.68 -5.5,291.53 0.2,583.03 1.1,874.56 -168.3,1.23 -323.1,-2.13 -504.75,3.53 -43.56,5.3 -82.67,14.78 -109.21,69.75 -11.24,29.2 -15.58,80.35 -2.58,125.13 15.32,45.83 77.97,80.45 120.1,76.46 l 645.74,-0.27"
         style="fill:#e3e3e3;fill-opacity:1;fill-rule:evenodd;stroke:none"
         id="path38" />
      <path
         d="m 7803.16,7271.55 c 184.26,4.27 369.33,-96.1 550.75,-129.99 66.21,-26.29 142.85,0.17 205.93,-95.06 22.31,-95.93 18.95,-193.81 -34.06,-329.13 -60.36,-159.9 -171.34,-306.28 -222.42,-477.44 -6.02,-39.91 -9.98,-79.93 -12.81,-119.92 -108.43,22.13 -209.13,169.21 -310.72,179.65 -55.05,25.66 -47.8,76.64 -54.79,117.98 -28.68,-28.68 -29.31,-96.1 -75.13,-83.19 -22.84,-0.45 -83.54,-4.44 -114.78,24.16 -19.67,16.98 -27.97,35.4 -39.13,56.44 -66.38,-69.28 -129.83,-42.47 -197.53,-31.23 27.62,259.85 27.79,518.79 188.67,784.81 30.74,46.48 76.03,76.73 116.02,102.92"
         style="fill:#00a650;fill-opacity:1;fill-rule:evenodd;stroke:none"
         id="path40" />
      <path
         d="m 8789.06,4903.27 50.2,4.13 c 136.69,-26.39 290.19,43.68 417.15,-11.46 3.39,-21.7 -74.47,-60.41 -74.53,-80.71 -0.04,-18.13 77.82,-17.93 78.07,-36.5 0.68,-49.84 -19.56,-73.42 -46.63,-100.69 -7.7,-9.91 -16.55,-20.34 -26.02,-30.43 l -327.89,17.34 c -29.18,79.34 -52.44,158.82 -70.35,238.32"
         style="fill:#ed1c24;fill-opacity:1;fill-rule:evenodd;stroke:none"
         id="path42" />
      <path
         d="m 8789.06,4930.57 50.2,4.14 c -0.63,0.12 -1.25,0.25 -1.88,0.38 42.92,40.09 79.82,45.5 119.56,54.08 132.76,28.5 273.01,-27.34 397.44,87.78 23.28,94.35 31.33,187.27 47.02,280.91 -14.45,-0.27 -28.88,-0.54 -43.31,-1.07 -202.46,24.26 -404.17,-158.05 -607.96,-182.03 7.82,-81.38 20.59,-162.81 38.93,-244.19"
         style="fill:#ffffff;fill-opacity:1;fill-rule:evenodd;stroke:none"
         id="path44" />
      <path
         d="m 8393.72,6225.5 c 44.79,110.08 128.24,219.73 165.33,329.14 55.83,110.18 77.26,226.45 208.51,332.11 45.21,27.98 81.67,32.77 130.45,21.78 17.23,-47.87 -1.33,-99.92 -15.15,-145.75 l 103.91,40.97 c 22.2,-60.54 97.15,-123 64.52,-180.88 -36.56,-53.1 -72.85,-103.46 -105.07,-156.11 68.69,11.49 120.65,96.98 180.62,112.56 121.53,-132.13 180.28,-276.48 264.09,-417.28 41.25,-78.68 -70.97,-187 -155.03,-215.85 -51.15,-24.69 -99.22,-35.22 -154.61,-70.62 l -442.24,-312.75 c -55.22,111.34 -148.42,216.37 -154.86,335.75 19.01,39.75 52.3,79.83 62.03,120.37 -34.09,-8.75 -60.11,-17.69 -87.34,-62.11 -3.65,-4.17 -7.54,-8.26 -11.35,-12.32 -36.09,47.72 -86.9,80 -130.69,113.64 l 42.54,120.19 43.37,-68.51 c 74.16,138.6 187,278.96 311.43,416.48 49.12,58.33 92.92,117.36 131.35,176.39 -102.15,-31.79 -215.06,-192.24 -294.27,-296.82 -47.78,-59.76 -81.96,-122.33 -157.54,-180.38"
         style="fill:#ffffff;fill-opacity:1;fill-rule:evenodd;stroke:none"
         id="path46" />
      <path
         d="m 5690.79,7117.57 c 240.45,127.52 490.47,176.11 737.11,171.34 93.8,-310.71 200.1,-621.79 226.74,-932.71 -74.16,-13.34 -147.01,-56.54 -220.36,-45.2 -13.73,44.43 -27.62,119.46 -88.61,124.6 -1.4,-54.69 74.79,-118.23 11.35,-162.23 -69.47,-20.8 -140.02,-20.87 -209.4,-46.29 -114.7,296.85 -363.21,595.08 -456.83,890.49"
         style="fill:#1a943e;fill-opacity:1;fill-rule:evenodd;stroke:none"
         id="path48" />
      <path
         d="m 8878.92,4520.38 c -3.25,22.19 -2.61,44.54 -1.64,67 83.33,40.89 192.56,33.93 283.36,-20.89 2.71,-22.94 5.41,-49.92 -19.31,-63.86 -6.37,-3.59 -85.01,-10.34 -86.58,-16.25 -1.95,-7.24 95.5,-21.34 92.73,-28.58 -3.76,-9.84 -8.27,-19.76 -13.48,-29.75 -11.72,-22.41 -27.32,-45.26 -47.45,-68.51 -159.8,-22.91 -211.35,51.59 -207.63,160.84"
         style="fill:#ed1c24;fill-opacity:1;fill-rule:evenodd;stroke:none"
         id="path50" />
      <path
         d="m 6010.38,8958.61 c -49.83,103.56 -178.43,92.22 -239.51,-15.93 -7.78,-22.48 -8.83,-44.43 -1.14,-66.45 l 191.87,-541.37 80.28,28.33 -70.54,198.86 c 54.79,11.59 138.32,63.64 128.93,125.15 -18.86,90.79 -59.89,180.98 -89.89,271.41 z m -174.9,-13.09 80.18,28.5 116.03,-327.53 -80.17,-28.42 z m 331.95,164.79 152.33,-659.85 83.01,19.19 -152.39,659.78 z m 593.05,-579.15 -21.6,125.06 -82.91,-14.34 11.59,-67.44 -82.14,-14.15 -20.34,117.88 110.25,345.59 -30.17,174.7 -248.94,-43.09 21.6,-124.89 83.89,14.5 -11.51,66.38 82.13,14.18 20.09,-116.13 -112.94,-346.01 30.36,-175.61 z m 365.57,22.48 -10.42,126.46 -83.9,-6.9 5.68,-68.23 -83.11,-6.8 -9.84,119.21 140.45,334.53 -14.59,176.63 -251.69,-20.79 10.43,-126.29 84.8,7 -5.59,67.08 83.1,6.9 9.65,-117.53 -143.11,-334.63 14.7,-177.61 z m 126.39,95.41 c -7.95,-34.52 42.29,-108.05 98.67,-106.9 l 148.61,-7.45 10.51,212.66 -84.06,4.17 -7.61,-152.4 -83.18,4.16 12.36,249.66 83.29,-4.16 2.84,58.42 -83.18,4.14 12.39,248.68 83.18,-4.06 -7.42,-150.54 84.06,-4.14 10.54,211.6 c -60.99,0.78 -123.56,13.52 -182.93,2.38 -30.18,-6.29 -77.35,-57.45 -74.53,-92.57 z m 875.61,470.02 -154.35,-659.32 82.83,-19.47 154.37,659.42 z m 123.56,-730.04 69.64,199.13 78.77,-27.52 -69.56,-199.13 79.38,-27.78 c 64.61,191.24 140.7,382.05 193.91,573.73 6.72,48.32 -60.63,108.15 -112.94,115.33 -41.94,14.42 -106.01,-0.46 -131.68,-62.92 L 8169.65,8417.7 Z m 202.05,583.83 78.75,-27.52 -114.61,-327.98 -78.77,27.52 114.63,327.98"
         style="fill:#e3e3e3;fill-opacity:1;fill-rule:evenodd;stroke:none"
         id="path52" />
      <path
         d="m 7865.48,8487.37 37.88,271.33 -33.99,70.89 52.3,60.61 c 6.91,65.93 26.02,133.99 20.72,197.64 -3.36,27.34 -45.86,82.65 -86.46,84.41 l -150.8,20.97 -92.94,-668.95 86.01,-11.94 42.23,303.82 82.48,-11.52 -42.29,-306.55 z m -82.56,635.06 84.52,-11.67 -34.27,-246.75 -84.42,11.77 34.17,246.65"
         style="fill:#e3e3e3;fill-opacity:1;fill-rule:evenodd;stroke:none"
         id="path54" />
      <path
         d="m 8893.91,4270.25 c -0.7,25.16 109.13,89.48 218.94,3.99 0,-13.78 -72.37,-30.41 -75.7,-51.99 -1.22,-7.89 73.29,3.43 65.12,-26.36 -5.96,-21.84 -65.64,-24.41 -73.05,-47.61 -2.02,-6.31 48.82,-33.67 46.7,-39.85 -35.29,-103.42 -84.58,-186.48 -142.32,-46.49 -28.37,68.83 -39.62,207.47 -39.69,208.31"
         style="fill:#ed1c24;fill-opacity:1;fill-rule:evenodd;stroke:none"
         id="path56" />
    </g>
  </g>
</svg>
